<?xml version="1.0" encoding="utf-8"?>
<!-- Generator: Adobe Illustrator 21.0.0, SVG Export Plug-In . SVG Version: 6.00 Build 0)  -->
<svg version="1.1" id="Layer_1" xmlns="http://www.w3.org/2000/svg" xmlns:xlink="http://www.w3.org/1999/xlink" x="0px" y="0px"
	 viewBox="0 0 24 24" style="enable-background:new 0 0 24 24;" xml:space="preserve" preserveAspectRatio="xMinYMid">
<style type="text/css">
	.st0{fill:#7A7A7A;}
	.st1{fill:none;}
</style>
<path class="st0" d="M9.9,11.3H8.4v1.4h1.4V11.3z M12.7,11.3h-1.4v1.4h1.4V11.3z M15.6,11.3h-1.4v1.4h1.4V11.3z M17,6.3h-0.7V4.8
	h-1.4v1.4H9.1V4.8H7.7v1.4H7c-0.8,0-1.4,0.6-1.4,1.4l0,10c0,0.8,0.6,1.4,1.4,1.4h10c0.8,0,1.4-0.6,1.4-1.4v-10
	C18.5,6.9,17.8,6.3,17,6.3z M17,17.7H7V9.9h10V17.7z"/>
<path class="st1" d="M0,0h24v24H0V0z"/>
</svg>
