<?xml version="1.0" encoding="utf-8"?>
<!-- Generator: Adobe Illustrator 21.0.0, SVG Export Plug-In . SVG Version: 6.00 Build 0)  -->
<svg version="1.1" id="Layer_1" xmlns="http://www.w3.org/2000/svg" xmlns:xlink="http://www.w3.org/1999/xlink" x="0px" y="0px"
	 viewBox="0 0 24 24" style="enable-background:new 0 0 24 24;" xml:space="preserve" preserveAspectRatio="xMinYMid">
<style type="text/css">
	.st0{fill:none;}
	.st1{fill:#7A7A7A;}
</style>
<path class="st0" d="M0,0h24v24H0V0z"/>
<path class="st1" d="M12,4.9c-3.9,0-7,3.1-7,7s3.1,7,7,7c3.9,0,7-3.1,7-7S15.9,4.9,12,4.9z M12,17.5c-3.1,0-5.6-2.5-5.6-5.6
	S8.9,6.3,12,6.3s5.6,2.5,5.6,5.6S15.1,17.5,12,17.5z"/>
<path class="st0" d="M8.7,3.5h16.8v16.8H8.7V3.5z"/>
<path class="st1" d="M12.4,8.4h-1.1v4.2l3.7,2.2l0.5-0.9l-3.2-1.9V8.4z"/>
</svg>
